<?xml version="1.0" encoding="utf-8"?>
<svg xmlns="http://www.w3.org/2000/svg" width="800" height="800" viewBox="0 0 211.66666 211.66666" version="1.1" id="svg924">
  <g id="svg-1" style="" transform="matrix(1.98437, 0, 0, 1.98437, -76.818176, -60.158108)">
    <g id="group-1" transform="matrix(3.779528, 0, 0, 3.779528, -284.389191, -405.430847)">
      <g id="group-2" transform="matrix(1.3463334,0,0,1.3463334,375.33156,-1215.5059)">
        <g transform="matrix(0.62886854,0,0,0.62886854,125.31818,297.99865)" id="group-3" style="fill:#000000">
          <g id="group-4" style="font-style:normal;font-variant:normal;font-weight:normal;font-stretch:normal;font-size:25.8336px;line-height:125%;font-family:Helion;-inkscape-font-specification:Helion;text-align:start;letter-spacing:0px;word-spacing:0px;writing-mode:lr-tb;text-anchor:start;fill:#000000;fill-opacity:1;stroke:none" transform="matrix(1.2435137,0,0,1.2435137,-791.06481,553.75862)"/>
        </g>
        <g id="g1882">
          <path id="path1296" style="fill: rgb(0, 0, 0); fill-opacity: 1; fill-rule: nonzero; stroke: none; stroke-width: 0.495509;" d="M -206.294 995.375 L -206.502 998.547 L -209.584 997.185 L -210.48 993.631 C -210.04 993.197 -209.231 990.653 -208.571 990.653 C -207.861 990.653 -206.744 994.882 -206.294 995.375 Z"/>
        </g>
        <g id="group-5" transform="matrix(1, 0, 0, 1, 14.316198, 11.580034)">
          <path id="path-1" style="fill: rgb(0, 0, 0); fill-opacity: 1; fill-rule: nonzero; stroke: none; stroke-width: 0.495509;" d="M -217.679 987.075 L -218.021 984.468 L -217.09 982.201 C -216.66 981.723 -215.871 978.872 -215.151 978.872 C -214.491 978.872 -214.468 984.877 -214.038 985.311 L -217.679 987.075 Z"/>
        </g>
      </g>
    </g>
  </g>
  <g id="layer1" transform="matrix(1.98437, 0, 0, 1.98437, -127.392052, -117.990379)" style="">
    <g id="g1898" transform="matrix(1.3463334,0,0,1.3463334,375.33156,-1215.5059)">
      <path id="path1290" style="fill:#e57000;fill-opacity:1;fill-rule:nonzero;stroke:none;stroke-width:0.542875" d="M -173.385 989.645 L -154.51 1010.387 C -156.584 1012.531 -159.488 1013.845 -162.669 1013.845 C -166.057 1013.845 -169.029 1012.393 -171.104 1010.111 L -179.818 998.375 L -186.424 987.229 L -171.468 979.523 L -171.104 969.248 C -169.029 966.967 -168.856 964.662 -165.468 964.662 C -162.287 964.662 -162.713 985.111 -160.639 987.185 L -173.385 989.645 Z"/>
      <path id="path1292" style="fill:#e57000;fill-opacity:1;fill-rule:nonzero;stroke:none;stroke-width:0.542875" d="M -210.199 989.645 L -229.074 1010.387 C -226.999 1012.53 -224.096 1013.845 -220.914 1013.845 C -217.527 1013.845 -214.554 1012.393 -212.48 1010.111 L -203.593 997.857 L -197.709 986.51 L -211.514 980.424 L -212.48 969.248 C -214.554 966.967 -216.31 964.419 -219.697 964.419 C -222.879 964.419 -220.833 986.227 -222.908 988.301 L -210.199 989.645 Z"/>
      <g transform="matrix(0.558089, 0, 0, 0.483328, 125.331734, 436.375641)" id="g1288" style="fill: rgb(0, 0, 0);">
        <g id="g1286" style="font-style:normal;font-variant:normal;font-weight:normal;font-stretch:normal;font-size:25.8336px;line-height:125%;font-family:Helion;-inkscape-font-specification:Helion;text-align:start;letter-spacing:0px;word-spacing:0px;writing-mode:lr-tb;text-anchor:start;fill:#000000;fill-opacity:1;stroke:none" transform="matrix(1.2435137,0,0,1.2435137,-791.06481,553.75862)">
          <g id="Layer_2" transform="matrix(0.94981, 0, 0, 0.94981, 137.153366, 239.922012)">
            <path d="M 40.69 194.063 C 39.547 194.063 38.616 193.132 38.616 191.989 C 38.616 190.846 39.547 189.915 40.69 189.915 C 41.834 189.915 42.764 190.846 42.764 191.989 C 42.764 193.132 41.834 194.063 40.69 194.063" id="path63924" style="fill: rgb(1, 1, 1);"/>
            <path d="M 48.618 199.645 C 47.105 199.645 45.875 198.414 45.875 196.902 C 45.875 195.39 47.105 194.159 48.618 194.159 C 50.13 194.159 51.36 195.39 51.36 196.902 C 51.36 198.414 50.13 199.645 48.618 199.645" id="path63722" style="fill: rgb(1, 1, 1);"/>
            <path d="M 42.823 202.889 C 42.033 202.889 41.391 202.247 41.391 201.458 C 41.391 200.669 42.033 200.027 42.823 200.027 C 43.612 200.027 44.254 200.669 44.254 201.458 C 44.254 202.247 43.612 202.889 42.823 202.889" id="path64150" style="fill: rgb(1, 1, 1);"/>
            <path d="M 28.429 210.037 C 28.429 207.097 30.456 204.705 33.249 204.093 C 33.705 203.989 34.236 203.934 34.729 203.934 L 53.153 203.934 C 56.656 203.934 59.4 206.615 59.4 210.037 C 59.4 212.436 58.048 214.471 56.031 215.466 C 55.791 215.588 55.509 215.7 55.251 215.79 C 54.999 215.879 54.73 215.983 54.462 216.039 C 54.341 216.068 54.218 216.095 54.094 216.119 C 53.87 216.909 53.512 218.845 53.393 223.334 C 53.302 226.76 53.402 229.918 53.403 229.953 L 53.405 230.002 L 53.404 230.052 C 53.403 230.167 53.327 239.437 56.897 245.651 C 68.027 265.025 73.284 275.242 75.744 280.752 C 77.844 285.461 77.866 286.656 77.872 287.328 L 77.874 287.478 C 77.876 287.727 77.876 287.972 77.874 288.218 C 77.874 288.268 77.873 288.323 77.872 288.373 C 77.845 290.586 77.608 292.942 75.573 294.736 C 73.391 296.659 69.491 297.518 62.94 297.518 L 24.917 297.518 C 24.677 297.518 24.413 297.517 24.181 297.514 C 18.056 297.454 14.358 296.589 12.257 294.737 C 10.223 292.943 9.985 290.59 9.957 288.378 C 9.956 288.328 9.956 288.271 9.956 288.221 C 9.954 287.974 9.954 287.728 9.956 287.478 L 9.957 287.329 C 9.964 286.656 9.984 285.459 12.092 280.737 C 14.555 275.223 19.813 265.008 30.932 245.651 C 34.52 239.406 34.426 230.143 34.425 230.05 L 34.424 230.001 L 34.426 229.951 C 34.427 229.905 34.527 226.753 34.436 223.334 C 34.317 218.839 33.958 216.903 33.734 216.114 C 33.651 216.098 33.569 216.081 33.487 216.063 C 33.213 216.011 32.937 215.91 32.679 215.824 C 32.412 215.736 32.122 215.626 31.875 215.504 C 29.816 214.524 28.429 212.466 28.429 210.037 Z M 32.526 210.037 C 32.526 211.153 33.416 211.999 34.602 212.021 C 35.317 212.035 36.005 212.335 36.544 212.86 C 36.76 213.071 36.976 213.337 37.178 213.72 C 37.809 214.921 38.349 217.267 38.519 222.801 C 38.628 226.33 38.536 229.596 38.522 230.039 C 38.522 230.052 38.522 230.068 38.522 230.084 C 38.529 231.145 38.47 240.034 34.93 246.873 C 34.782 247.159 34.627 247.443 34.466 247.724 C 32.606 250.962 27.843 259.255 23.343 267.594 C 23.13 267.987 22.919 268.38 22.708 268.773 C 16.759 279.866 14.805 284.548 14.268 286.367 C 14.251 286.425 14.234 286.486 14.219 286.538 C 14.086 287.009 14.053 287.265 14.051 287.403 L 14.051 287.553 C 14.051 289.716 14.096 290.897 14.966 291.663 C 16.289 292.829 19.612 293.419 24.865 293.421 L 62.964 293.421 C 68.217 293.419 71.541 292.829 72.863 291.663 C 73.733 290.897 73.778 289.716 73.779 287.554 L 73.779 287.402 C 73.776 287.261 73.741 286.995 73.599 286.499 C 73.584 286.45 73.569 286.392 73.552 286.338 C 73.005 284.502 71.041 279.812 65.123 268.777 C 64.893 268.348 64.662 267.919 64.431 267.49 C 59.95 259.193 55.221 250.959 53.367 247.732 C 53.168 247.385 52.979 247.034 52.8 246.679 C 49.307 239.765 49.3 230.874 49.307 230.041 C 49.307 230.029 49.306 230.012 49.306 229.995 C 49.288 229.411 49.204 226.23 49.31 222.801 C 49.483 217.176 50.038 214.843 50.683 213.66 C 50.875 213.31 51.078 213.06 51.282 212.86 C 51.303 212.839 51.324 212.819 51.346 212.799 C 51.875 212.311 52.54 212.035 53.228 212.021 C 54.414 211.998 55.304 211.153 55.304 210.037 C 55.304 208.895 54.378 208.031 53.153 208.031 L 36.246 208.031 C 36.222 208.031 34.63 208.037 34.611 208.048 C 33.42 208.069 32.526 208.918 32.526 210.037" id="path62022" style="fill: rgb(1, 1, 1);"/>
            <path d="M 47.695 212.843 C 46.916 212.843 46.283 212.21 46.283 211.431 C 46.283 210.653 46.916 210.019 47.695 210.019 C 48.474 210.019 49.107 210.653 49.107 211.431 C 49.107 212.21 48.474 212.843 47.695 212.843" id="path63310" style="fill: rgb(1, 1, 1);"/>
            <path d="M 41.857 218.046 C 41.065 218.046 40.421 217.402 40.421 216.61 C 40.421 215.818 41.065 215.174 41.857 215.174 C 42.649 215.174 43.293 215.818 43.293 216.61 C 43.293 217.402 42.649 218.046 41.857 218.046" id="path63088" style="fill: rgb(1, 1, 1);"/>
            <path d="M 45.762 226.21 C 44.715 226.21 43.863 225.358 43.863 224.311 C 43.863 223.263 44.715 222.412 45.762 222.412 C 46.809 222.412 47.662 223.263 47.662 224.311 C 47.662 225.358 46.809 226.21 45.762 226.21" id="path62686" style="fill: rgb(1, 1, 1);"/>
            <path d="M 42.823 239.281 C 41.483 239.281 40.392 238.191 40.392 236.851 C 40.392 235.51 41.483 234.42 42.823 234.42 C 44.163 234.42 45.254 235.51 45.254 236.851 C 45.254 238.191 44.163 239.281 42.823 239.281" id="path62440" style="fill: rgb(1, 1, 1);"/>
            <path d="M 47.695 248.28 C 46.719 248.28 45.924 247.485 45.924 246.509 C 45.924 245.532 46.719 244.738 47.695 244.738 C 48.671 244.738 49.466 245.532 49.466 246.509 C 49.466 247.485 48.671 248.28 47.695 248.28" id="path62894" style="fill: rgb(1, 1, 1);"/>
            <path d="M 39.883 256.595 C 38.567 256.595 37.496 255.524 37.496 254.207 C 37.496 252.891 38.567 251.82 39.883 251.82 C 41.2 251.82 42.271 252.891 42.271 254.207 C 42.271 255.524 41.2 256.595 39.883 256.595" id="path63518" style="fill: rgb(1, 1, 1);"/>
            <path d="M 29.045 261.162 C 29.25 260.967 30.32 260.275 31.327 260.033 C 31.563 259.976 31.8 259.946 32.027 259.952 C 32.495 259.963 32.994 260.146 33.542 260.409 C 34.546 260.891 35.726 261.637 37.227 262.066 C 37.653 262.188 38.168 262.222 38.747 262.191 C 40.761 262.084 43.532 261.187 45.876 260.496 C 46.584 260.288 47.252 260.099 47.849 259.956 C 48.144 259.885 48.466 259.839 48.809 259.815 C 49.188 259.788 49.6 259.788 50.035 259.812 C 53.141 259.985 57.284 261.315 58.889 261.793 C 58.999 261.825 59.096 261.854 59.181 261.878 C 68.763 279.199 71.353 285.52 71.781 287.116 C 71.9 287.563 71.874 288.363 71.854 288.897 C 71.852 288.94 71.851 288.981 71.849 289.021 C 71.829 289.517 71.614 289.997 71.276 290.32 C 71.254 290.339 71.232 290.364 71.21 290.382 C 71.044 290.531 70.844 290.648 70.62 290.72 C 68.5 291.399 65.289 291.516 62.94 291.516 L 24.889 291.516 C 22.545 291.516 19.33 291.399 17.21 290.72 C 16.987 290.649 16.789 290.532 16.624 290.386 C 16.245 290.048 16 289.529 15.981 289.008 C 15.946 287.986 15.954 287.464 16.048 287.108 C 16.526 285.328 18.111 280.716 29.045 261.162" id="path62240" style="fill: rgb(1, 1, 1);"/>
          </g>
        </g>
      </g>
    </g>
  </g>
</svg>